<svg width="19" height="19" viewBox="0 0 19 19" fill="none" xmlns="http://www.w3.org/2000/svg">
<path d="M10.3137 12.7102L15.6262 9.89768C16.0416 9.6783 16.0416 9.32168 15.6262 9.1023L10.3137 6.2898C9.89825 6.06986 9.22569 6.06986 8.81131 6.2898C8.39694 6.50974 8.39587 6.8658 8.81131 7.08518L12.3101 8.93749H2.125C1.5385 8.93749 1.0625 9.18949 1.0625 9.49999C1.0625 9.81049 1.5385 10.0625 2.125 10.0625H12.3101L8.81131 11.9148C8.60412 12.0245 8.5 12.1685 8.5 12.3125C8.5 12.4565 8.60412 12.6005 8.81131 12.7102C9.22675 12.9301 9.89931 12.9301 10.3137 12.7102Z" fill="#FFBA2D"/>
<circle cx="9.5" cy="9.5" r="8.5" stroke="#FFBA2D" stroke-width="2"/>
</svg>
